HIERARCHY
ROOT Hips
{
  OFFSET 1.73907 43.2358 0.0522707
  CHANNELS 6 Xposition Yposition Zposition Zrotation Xrotation Yrotation
  JOINT Bip01_Pelvis
  {
    OFFSET 0 0 0
    CHANNELS 6 Xposition Yposition Zposition Zrotation Xrotation Yrotation
    JOINT BN_Tail_01
    {
      OFFSET -2.28979 -2.39917 0
      CHANNELS 6 Xposition Yposition Zposition Zrotation Xrotation Yrotation
      JOINT BN_Tail_02
      {
        OFFSET 9.67405 0 0
        CHANNELS 6 Xposition Yposition Zposition Zrotation Xrotation Yrotation
        JOINT BN_Tail_03
        {
          OFFSET 10.5192 0 -1.14441e-005
          CHANNELS 6 Xposition Yposition Zposition Zrotation Xrotation Yrotation
          JOINT BN_Tail_04
          {
            OFFSET 8.16754 0 0
            CHANNELS 6 Xposition Yposition Zposition Zrotation Xrotation Yrotation
            End Site
            {
              OFFSET 0 0 0
            }
          }
        }
      }
    }
    JOINT Bip01_Spine
    {
      OFFSET 2.25317 -0.00479889 0
      CHANNELS 6 Xposition Yposition Zposition Zrotation Xrotation Yrotation
      JOINT Bip01_R_Thigh
      {
        OFFSET -2.32652 -0.461891 -2.25534
        CHANNELS 6 Xposition Yposition Zposition Zrotation Xrotation Yrotation
        JOINT Bip01_R_Calf
        {
          OFFSET 9.47902 0 0
          CHANNELS 6 Xposition Yposition Zposition Zrotation Xrotation Yrotation
          JOINT Bip01_R_Foot
          {
            OFFSET 8.42616 0 0
            CHANNELS 6 Xposition Yposition Zposition Zrotation Xrotation Yrotation
            JOINT Bip01_R_Toe1
            {
              OFFSET 1.4015 3.97627 -1.33795
              CHANNELS 6 Xposition Yposition Zposition Zrotation Xrotation Yrotation
              JOINT Bip01_R_Toe11
              {
                OFFSET 2.94553 0 0
                CHANNELS 6 Xposition Yposition Zposition Zrotation Xrotation Yrotation
                JOINT Bip01_R_Toe1Nub
                {
                  OFFSET 2.52656 0 0
                  CHANNELS 6 Xposition Yposition Zposition Zrotation Xrotation Yrotation
                  End Site
                  {
                    OFFSET 0 0 0
                  }
                }
              }
            }
            JOINT Bip01_R_Toe0
            {
              OFFSET 2.09729 6.93129 0.0277901
              CHANNELS 6 Xposition Yposition Zposition Zrotation Xrotation Yrotation
              JOINT Bip01_R_Toe01
              {
                OFFSET 3.0714 0 0
                CHANNELS 6 Xposition Yposition Zposition Zrotation Xrotation Yrotation
                JOINT Bip01_R_Toe0Nub
                {
                  OFFSET 3.37999 0 0
                  CHANNELS 6 Xposition Yposition Zposition Zrotation Xrotation Yrotation
                  End Site
                  {
                    OFFSET 0 0 0
                  }
                }
              }
            }
          }
        }
      }
      JOINT Bip01_L_Thigh
      {
        OFFSET -2.07803 -0.462101 2.48614
        CHANNELS 6 Xposition Yposition Zposition Zrotation Xrotation Yrotation
        JOINT Bip01_L_Calf
        {
          OFFSET 9.47902 0 0
          CHANNELS 6 Xposition Yposition Zposition Zrotation Xrotation Yrotation
          JOINT Bip01_L_Foot
          {
            OFFSET 8.42617 0 0
            CHANNELS 6 Xposition Yposition Zposition Zrotation Xrotation Yrotation
            JOINT Bip01_L_Toe1
            {
              OFFSET 1.40151 3.97627 1.33796
              CHANNELS 6 Xposition Yposition Zposition Zrotation Xrotation Yrotation
              JOINT Bip01_L_Toe11
              {
                OFFSET 2.94554 0 0
                CHANNELS 6 Xposition Yposition Zposition Zrotation Xrotation Yrotation
                JOINT Bip01_L_Toe1Nub
                {
                  OFFSET 2.52656 0 0
                  CHANNELS 6 Xposition Yposition Zposition Zrotation Xrotation Yrotation
                  End Site
                  {
                    OFFSET 0 0 0
                  }
                }
              }
            }
            JOINT Bip01_L_Toe0
            {
              OFFSET 2.0973 6.93128 -0.0277834
              CHANNELS 6 Xposition Yposition Zposition Zrotation Xrotation Yrotation
              JOINT Bip01_L_Toe01
              {
                OFFSET 3.07141 0 0
                CHANNELS 6 Xposition Yposition Zposition Zrotation Xrotation Yrotation
                JOINT Bip01_L_Toe0Nub
                {
                  OFFSET 3.37999 0 0
                  CHANNELS 6 Xposition Yposition Zposition Zrotation Xrotation Yrotation
                  End Site
                  {
                    OFFSET 0 0 0
                  }
                }
              }
            }
          }
        }
      }
      JOINT Bip01_Spine1
      {
        OFFSET 6.17162 -0.00484467 0
        CHANNELS 6 Xposition Yposition Zposition Zrotation Xrotation Yrotation
        JOINT BN_R_Clavicle_01
        {
          OFFSET 6.15897 -2.02444 -2.78435
          CHANNELS 6 Xposition Yposition Zposition Zrotation Xrotation Yrotation
          JOINT BN_R_UpperArm_01
          {
            OFFSET 3.43915 0 0
            CHANNELS 6 Xposition Yposition Zposition Zrotation Xrotation Yrotation
            JOINT BN_R__Forearm_01
            {
              OFFSET 10.2529 0 0
              CHANNELS 6 Xposition Yposition Zposition Zrotation Xrotation Yrotation
              JOINT BN_R_Hand_01
              {
                OFFSET 16.2051 0 0
                CHANNELS 6 Xposition Yposition Zposition Zrotation Xrotation Yrotation
                JOINT BN_R_Finger_07
                {
                  OFFSET 2.2539 2.19923 0.192043
                  CHANNELS 6 Xposition Yposition Zposition Zrotation Xrotation Yrotation
                  End Site
                  {
                    OFFSET 0 0 0
                  }
                }
                JOINT BN_R_Finger_01
                {
                  OFFSET 2.17806 -1.99631 -0.219296
                  CHANNELS 6 Xposition Yposition Zposition Zrotation Xrotation Yrotation
                  End Site
                  {
                    OFFSET 0 0 0
                  }
                }
                JOINT BN_R_Finger_05
                {
                  OFFSET 3.30715 1.42802 0.17391
                  CHANNELS 6 Xposition Yposition Zposition Zrotation Xrotation Yrotation
                  End Site
                  {
                    OFFSET 0 0 0
                  }
                }
                JOINT BN_R_Finger_03
                {
                  OFFSET 3.93641 -0.769831 0.580946
                  CHANNELS 6 Xposition Yposition Zposition Zrotation Xrotation Yrotation
                  End Site
                  {
                    OFFSET 0 0 0
                  }
                }
              }
            }
          }
        }
        JOINT BN_L_Clavicle_01
        {
          OFFSET 6.15897 -2.02445 2.78458
          CHANNELS 6 Xposition Yposition Zposition Zrotation Xrotation Yrotation
          JOINT BN_L_UpperArm_01
          {
            OFFSET 3.43915 0 0
            CHANNELS 6 Xposition Yposition Zposition Zrotation Xrotation Yrotation
            JOINT BN_L__Forearm_01
            {
              OFFSET 10.2529 0 0
              CHANNELS 6 Xposition Yposition Zposition Zrotation Xrotation Yrotation
              JOINT BN_L_Hand_01
              {
                OFFSET 16.2051 0 0
                CHANNELS 6 Xposition Yposition Zposition Zrotation Xrotation Yrotation
                JOINT BN_L_Finger_05
                {
                  OFFSET 3.30715 -1.42803 0.173891
                  CHANNELS 6 Xposition Yposition Zposition Zrotation Xrotation Yrotation
                  End Site
                  {
                    OFFSET 0 0 0
                  }
                }
                JOINT BN_L_Finger_07
                {
                  OFFSET 2.2539 -2.19925 0.19203
                  CHANNELS 6 Xposition Yposition Zposition Zrotation Xrotation Yrotation
                  End Site
                  {
                    OFFSET 0 0 0
                  }
                }
                JOINT BN_L_Finger_01
                {
                  OFFSET 2.17804 1.99629 -0.219303
                  CHANNELS 6 Xposition Yposition Zposition Zrotation Xrotation Yrotation
                  End Site
                  {
                    OFFSET 0 0 0
                  }
                }
                JOINT BN_L_Finger_03
                {
                  OFFSET 3.9364 0.769825 0.580943
                  CHANNELS 6 Xposition Yposition Zposition Zrotation Xrotation Yrotation
                  End Site
                  {
                    OFFSET 0 0 0
                  }
                }
              }
            }
          }
        }
        JOINT Bip01_Neck
        {
          OFFSET 7.02381 -0.81237 0
          CHANNELS 6 Xposition Yposition Zposition Zrotation Xrotation Yrotation
          JOINT Bip01_Head
          {
            OFFSET 1.54249 1.14441e-005 0
            CHANNELS 6 Xposition Yposition Zposition Zrotation Xrotation Yrotation
            JOINT BN_Mouth_01
            {
              OFFSET 2.32836 0.166542 0
              CHANNELS 6 Xposition Yposition Zposition Zrotation Xrotation Yrotation
              End Site
              {
                OFFSET 0 0 0
              }
            }
            JOINT BN_R_Ear_01
            {
              OFFSET 3.4208 -0.773972 -2.25959
              CHANNELS 6 Xposition Yposition Zposition Zrotation Xrotation Yrotation
              End Site
              {
                OFFSET 0 0 0
              }
            }
            JOINT BN_L_Ear_01
            {
              OFFSET 3.4208 -0.773976 2.25975
              CHANNELS 6 Xposition Yposition Zposition Zrotation Xrotation Yrotation
              End Site
              {
                OFFSET 0 0 0
              }
            }
            JOINT Bip01_HeadNub
            {
              OFFSET 6.74789 0 0
              CHANNELS 6 Xposition Yposition Zposition Zrotation Xrotation Yrotation
              End Site
              {
                OFFSET 0 0 0
              }
            }
          }
        }
      }
    }
  }
}
MOTION
Frames:	4
Frame Time:	0.0333333
1.73907 43.2358 0.0522707 -180 -90 -90 0 0 0 -89.9965 -3.50835e-015 -90 -2.28979 -2.39917 3.72529e-009 -88.4052 89.9938 -90.6338 9.67405 3.72529e-009 3.8147e-006 -7.92128 -1.18698 8.49732 10.5192 4.44089e-016 -1.14441e-005 -8.22586 -3.6509 23.7709 8.16754 9.53674e-007 0 -9.5109 -3.07184 17.7429 2.25317 -0.00479889 3.72529e-009 -11.9511 -0.00248134 -2.99999 -2.32652 -0.461891 -2.25534 0.484922 -4.53447 157.111 9.47902 0 1.77636e-015 -18.7408 1.71185e-006 6.43231e-007 8.42616 -7.10543e-015 0 -24.9125 -3.50652 12.0182 1.4015 3.97627 -1.33795 85.448 -41.301 29.1432 2.94553 0 -3.8147e-006 -35.906 9.68771e-007 -1.27053e-006 2.52656 0 -3.55272e-015 4.06891e-007 1.0068e-005 -4.67876e-008 2.09729 6.93129 0.0277901 64.9971 1.17026e-005 -5.83556e-006 3.0714 -7.6294e-006 1.90735e-006 -25.9965 4.38537e-007 2.10765e-006 3.37999 3.8147e-006 0 2.9179e-007 9.90227e-007 -5.3766e-007 -2.07803 -0.462101 2.48614 6.67145 6.79891 -161.734 9.47902 0 1.77636e-015 -18.7408 5.69911e-006 1.23167e-005 8.42617 -7.10543e-015 9.53675e-007 -27.9519 7.5247 -5.38797 1.40151 3.97627 1.33796 71.6032 45.866 -19.564 2.94554 -3.8147e-006 0 -37.908 -9.37031e-006 7.28665e-006 2.52656 -3.8147e-006 3.8147e-006 -179.96 -3.024e-005 1.73321e-005 2.0973 6.93128 -0.0277834 53.9964 4.42172e-008 -7.65174e-008 3.07141 -3.8147e-006 0 -37.9967 1.22636e-006 1.41847e-005 3.37999 3.8147e-006 0 -179.96 -3.83355e-005 4.47094e-005 6.17162 -0.00484467 1.11022e-016 -8.99696 7.48421e-008 -8.37323e-009 6.15897 -2.02444 -2.78435 -178.034 9.59832 77.6605 3.43915 7.6294e-006 -1.90735e-006 99.9109 75.3181 -58.5818 10.2529 3.8147e-006 0 -63.5646 1.35905 0.85442 16.2051 9.53675e-007 1.90735e-006 28.3044 0.199228 24.6919 2.2539 2.19923 0.192043 68.6725 0.539847 3.29531 2.17806 -1.99631 -0.219296 -71.0401 -0.181408 7.61482 3.30715 1.42802 0.17391 21.8186 1.08491 24.5552 3.93641 -0.769831 0.580946 -1.23625 0.392944 41.3796 6.15897 -2.02445 2.78458 1.93808 9.5763 -102.334 3.43915 0 0 -89.8915 -72.6308 -50.2011 10.2529 -1.90735e-006 3.8147e-006 67.8409 -5.28636 6.96414 16.2051 -1.77636e-015 5.72205e-006 -25.4524 -4.51858 41.769 3.30715 -1.42803 0.173891 -21.8179 -1.08148 4.55489 2.2539 -2.19925 0.19203 -68.6725 -0.539848 3.29532 2.17804 1.99629 -0.219303 71.0446 0.182694 6.61525 3.9364 0.769825 0.580943 0.554945 -2.50293 24.3737 7.02381 -0.81237 -1.19209e-007 10.998 -1.13949e-007 -1.36724e-008 1.54249 1.14441e-005 2.22045e-016 -38.0066 -1.76232 5.4254 2.32836 0.166542 4.44089e-016 -89.5195 -0.0314941 -179.968 3.4208 -0.773972 -2.25959 131.452 1.94775 171.785 3.4208 -0.773976 2.25975 -48.4044 0.836282 -13.4378 6.74789 -1.90735e-006 4.44089e-016 2.27847e-007 3.80815e-008 6.56497e-008 
1.59864 43.264 0.0958431 89.9968 -89.9312 179.255 0 0 0 -89.9965 -3.50835e-015 -90 -2.28979 -2.39917 3.72529e-009 -88.9921 89.0986 -90.0053 9.67405 3.72529e-009 3.8147e-006 -7.40861 -1.31121 6.20917 10.5192 0 -1.14441e-005 -9.25309 -3.50971 24.6171 8.16754 9.53674e-007 7.10543e-015 -11.3448 -3.35285 19.6625 2.25317 -0.00479889 3.72529e-009 -11.58 -0.00813737 -2.89841 -2.32596 -0.447013 -2.25939 0.17416 -4.58796 157.812 9.47902 -2.13163e-014 -1.77636e-015 -16.9957 1.60077e-006 6.59557e-007 8.42616 7.10543e-015 3.55272e-015 -26.5347 -2.14964 11.4845 1.4015 3.97627 -1.33795 84.9151 -41.5205 28.7908 2.94553 7.10543e-015 -3.8147e-006 -35.6792 6.84232e-007 -5.57739e-007 2.52656 0 7.10543e-015 4.06891e-007 1.0068e-005 -4.67876e-008 2.09729 6.93129 0.0277901 64.5415 2.65081e-006 -1.00505e-005 3.0714 -7.6294e-006 1.90735e-006 -25.7677 1.06162e-006 9.34103e-007 3.37999 3.8147e-006 3.55272e-015 2.9179e-007 9.90227e-007 -5.3766e-007 -2.08555 -0.448004 2.4823 5.80663 6.65745 -161.196 9.47902 7.10543e-015 -1.77636e-015 -18.2449 8.59525e-006 3.6257e-006 8.42617 0 9.53675e-007 -28.6818 7.98578 -5.74434 1.40151 3.97627 1.33796 71.8208 45.8119 -19.7202 2.94554 -3.8147e-006 0 -37.6762 -9.19345e-006 7.34417e-006 2.52656 -3.8147e-006 3.8147e-006 -179.96 -3.02399e-005 1.7332e-005 2.0973 6.93128 -0.0277834 53.5408 5.06865e-008 -7.67851e-008 3.07141 -3.8147e-006 3.55271e-015 -37.7686 1.28524e-006 1.41754e-005 3.37999 3.8147e-006 -3.55271e-015 -179.96 -3.83355e-005 4.47094e-005 6.17162 -0.00484467 -1.11022e-016 -7.81204 0.0774843 -0.564747 6.15897 -2.02444 -2.78435 -178.034 9.59832 77.6605 3.43915 7.6294e-006 -1.90735e-006 98.1907 72.3292 -65.9041 10.2529 3.8147e-006 0 -65.4468 1.46405 0.916813 16.2051 9.53675e-007 1.90735e-006 28.5245 -0.240174 27.0384 2.2539 2.19923 0.192043 68.6491 0.538269 5.57855 2.17806 -1.99631 -0.219296 -71.0208 -0.179921 7.12464 3.30715 1.42802 0.17391 21.818 1.07973 25.3712 3.93641 -0.769831 0.580946 -1.23377 0.396723 41.1548 6.15897 -2.02445 2.78458 1.93808 9.5763 -102.334 3.43915 1.42109e-014 1.06581e-014 -85.9049 -70.6668 -55.5361 10.2529 -1.90735e-006 3.8147e-006 67.8578 -4.68756 7.39436 16.2051 1.59872e-013 5.72205e-006 -26.1181 -3.66011 42.7713 3.30715 -1.42803 0.173891 -21.8259 -1.0835 7.59199 2.2539 -2.19925 0.19203 -68.645 -0.5391 6.01798 2.17804 1.99629 -0.219303 71.047 0.183482 6.00362 3.9364 0.769825 0.580943 0.543088 -2.4587 25.554 7.02381 -0.81237 -1.19162e-007 10.998 -1.3863e-007 -1.09287e-008 1.54249 1.14441e-005 4.21885e-015 -37.5708 -1.92267 6.01967 2.32836 0.166542 1.54903e-011 -89.0512 -0.021698 -179.968 3.4208 -0.773972 -2.25959 130.062 2.15537 172.021 3.4208 -0.773976 2.25975 -50.0278 1.13693 -13.6266 6.74789 -1.90735e-006 8.88179e-016 2.27847e-007 3.80815e-008 6.56497e-008 
1.4715 43.4682 0.147282 89.9995 -89.7397 178.434 0 0 0 -89.9965 -3.50835e-015 -90 -2.28979 -2.39917 3.72529e-009 -89.1361 87.9681 -90.0024 9.67405 3.72529e-009 3.8147e-006 -6.36862 -1.40344 3.36923 10.5192 4.44089e-016 -1.14441e-005 -10.1069 -3.34519 24.6842 8.16754 9.53674e-007 1.06581e-014 -13.1335 -3.68697 21.5358 2.25317 -0.00479889 3.72529e-009 -10.6923 -0.0281971 -2.62666 -2.32182 -0.411447 -2.27031 -0.797262 -4.55935 158.7 9.47902 -2.13163e-014 -3.55271e-015 -14.8732 1.46386e-006 6.90686e-007 8.42616 0 3.55272e-015 -28.3844 -0.331743 10.736 1.4015 3.97627 -1.33795 83.4194 -42.1206 27.7934 2.94553 -7.10543e-015 -3.8147e-006 -35.0432 -4.13046e-006 6.85237e-006 2.52656 -7.10543e-015 3.55272e-015 4.06891e-007 1.0068e-005 -4.67876e-008 2.09729 6.93129 0.0277901 63.2762 3.19593e-006 -9.76515e-006 3.0714 -7.6294e-006 1.90735e-006 -25.1323 9.11401e-007 1.33834e-006 3.37999 3.8147e-006 7.10543e-015 2.9179e-007 9.90227e-007 -5.3766e-007 -2.10372 -0.413925 2.47277 4.04589 6.37729 -160.691 9.47902 1.42109e-014 -3.55271e-015 -17.8977 8.82731e-006 2.64181e-006 8.42617 -1.42109e-014 9.53675e-007 -29.3759 8.16511 -6.13325 1.40151 3.97627 1.33796 72.4321 45.6571 -20.1579 2.94554 -3.8147e-006 3.55272e-015 -37.0438 -3.2854e-006 1.07683e-007 2.52656 -3.8147e-006 3.8147e-006 -179.96 -3.02397e-005 1.73319e-005 2.0973 6.93128 -0.0277834 52.276 5.8822e-008 -7.49457e-008 3.07141 -3.8147e-006 5.32907e-015 -37.1324 7.49254e-006 6.16675e-006 3.37999 3.8147e-006 1.77636e-015 -179.96 -3.83355e-005 4.47094e-005 6.17162 -0.00484467 -2.22045e-016 -6.46129 0.137002 -1.20953 6.15897 -2.02444 -2.78435 -178.034 9.59832 77.6605 3.43915 7.62939e-006 -1.90735e-006 91.3678 68.3936 -71.1662 10.2529 3.8147e-006 -2.20269e-013 -66.9055 1.37468 0.983723 16.2051 9.53675e-007 1.90735e-006 28.8729 -0.842495 28.5014 2.2539 2.19923 0.192043 68.6294 0.533188 8.80583 2.17806 -1.99631 -0.219296 -71.0031 -0.178893 6.64398 3.30715 1.42802 0.17391 21.8174 1.07464 26.1714 3.93641 -0.769831 0.580946 -1.20536 0.420981 39.2077 6.15897 -2.02445 2.78458 1.9381 9.57629 -102.334 3.43915 1.42109e-014 1.06581e-014 -77.691 -68.0819 -59.5045 10.2529 -1.90735e-006 3.8147e-006 66.6783 -3.99192 7.80422 16.2051 3.94352e-013 5.72205e-006 -26.9841 -2.57165 42.0855 3.30715 -1.42803 0.173891 -21.8338 -1.08586 10.5701 2.2539 -2.19925 0.19203 -68.6218 -0.533338 9.5813 2.17804 1.99629 -0.219303 71.0493 0.184228 5.40387 3.9364 0.769825 0.580942 0.521734 -2.43519 25.7913 7.02381 -0.81237 -1.19217e-007 10.998 -1.23725e-007 2.00752e-007 1.54249 1.14441e-005 9.76997e-015 -37.589 -2.0139 6.52016 2.32836 0.166542 -5.35705e-012 -88.592 -0.0119934 -179.968 3.4208 -0.773972 -2.25959 128.697 2.35341 172.256 3.4208 -0.773976 2.25975 -51.6188 1.43676 -13.8034 6.74789 -1.90735e-006 1.33227e-015 2.27847e-007 3.80815e-008 6.56497e-008 
1.35821 43.8207 0.204495 89.9998 -89.4443 177.551 0 0 0 -89.9965 -3.50835e-015 -90 -2.28979 -2.39917 3.72529e-009 -89.4375 86.655 -90.0014 9.67405 3.72529e-009 3.8147e-006 -4.90717 -1.4674 0.098149 10.5192 1.55431e-015 -1.14441e-005 -10.7875 -3.16297 24.0897 8.16754 9.53674e-007 -7.10543e-015 -14.6357 -4.26307 22.9192 2.25317 -0.00479889 3.72529e-009 -9.37865 -0.0528472 -2.22209 -2.3145 -0.36024 -2.28631 -2.3089 -4.46018 159.725 9.47902 -1.42109e-014 0 -12.4569 1.29101e-006 7.21597e-007 8.42616 0 -1.77636e-015 -30.3566 1.81904 9.78838 1.4015 3.97627 -1.33795 81.0477 -43.0106 26.1889 2.94553 0 -3.8147e-006 -34.0616 -3.6375e-006 7.14164e-006 2.52656 7.10543e-015 3.55272e-015 4.06891e-007 1.0068e-005 -4.67876e-008 2.09729 6.93129 0.0277901 61.3148 3.81845e-006 -9.3969e-006 3.0714 -7.6294e-006 1.90735e-006 -24.1479 -2.99466e-006 1.01144e-005 3.37999 3.8147e-006 7.10543e-015 2.9179e-007 9.90227e-007 -5.3766e-007 -2.13062 -0.36422 2.45806 1.56502 5.99064 -160.242 9.47902 -1.42109e-014 0 -17.6747 5.70125e-006 1.20998e-005 8.42617 7.10543e-015 9.53675e-007 -30.0318 8.09202 -6.54445 1.40151 3.97627 1.33796 73.3687 45.4119 -20.8263 2.94554 -3.8147e-006 0 -36.0642 -8.32832e-006 7.63682e-006 2.52656 -3.8147e-006 3.8147e-006 -179.96 -3.02394e-005 1.73317e-005 2.0973 6.93128 -0.0277834 50.313 6.64825e-008 -6.93505e-008 3.07141 -3.8147e-006 3.55272e-015 -36.1488 7.60423e-006 6.02846e-006 3.37999 3.8147e-006 -3.55272e-015 -179.96 -3.83355e-005 4.47093e-005 6.17162 -0.00484467 -1.11022e-016 -4.99967 0.167684 -1.91605 6.15897 -2.02444 -2.78435 -178.034 9.59833 77.6605 3.43915 7.6294e-006 -1.90735e-006 80.4953 63.7467 -74.7848 10.2529 3.8147e-006 0 -67.9912 1.11291 1.03316 16.2051 9.53675e-007 1.90735e-006 29.2859 -1.57314 29.172 2.2539 2.19923 0.192043 68.6098 0.526939 12.0651 2.17806 -1.99631 -0.219296 -70.9865 -0.178259 6.15855 3.30715 1.42802 0.17391 21.818 1.07186 26.1189 3.93641 -0.769831 0.580946 -1.14438 0.444003 35.8314 6.15897 -2.02445 2.78458 1.9381 9.57629 -102.334 3.43915 2.13163e-014 7.10543e-015 -66.1302 -65.0266 -62.3886 10.2529 -1.90735e-006 3.8147e-006 64.5451 -3.20087 8.13921 16.2051 3.99681e-013 5.72205e-006 -27.9273 -1.25687 39.9937 3.30715 -1.42803 0.173891 -21.8313 -1.08528 13.8527 2.2539 -2.19925 0.19203 -68.5791 -0.525696 13.8888 2.17804 1.99629 -0.219303 71.0516 0.184959 4.79818 3.9364 0.769825 0.580942 0.526067 -2.43407 25.1925 7.02381 -0.81237 -1.19384e-007 10.998 1.71839e-006 9.81789e-006 1.54249 1.14441e-005 1.64313e-014 -38.0021 -2.06622 6.91817 2.32836 0.166542 -6.10157e-011 -88.1283 -0.00212097 -179.968 3.4208 -0.773972 -2.25959 127.318 2.54764 172.499 3.4208 -0.773976 2.25975 -53.4048 1.74577 -14.2812 6.74789 -1.90735e-006 4.44089e-016 2.27847e-007 3.80815e-008 6.56497e-008 
